<svg xmlns="http://www.w3.org/2000/svg" viewBox="0 0 500 500"><g id="freepik--Character--inject-67"><path d="M270.17,118.06c-.21.58-.7,1-1.08.83s-.51-.69-.3-1.28.7-1,1.08-.84S270.39,117.47,270.17,118.06Z" style="fill:#263238"></path><path d="M269.53,119a23.54,23.54,0,0,1-4.62,4.1,3.43,3.43,0,0,0,2.59,1.43Z" style="fill:#ff5652"></path><path d="M273.5,115.5a.33.33,0,0,1-.25-.15,2.78,2.78,0,0,0-2.27-1.23.34.34,0,0,1-.36-.34.38.38,0,0,1,.36-.38,3.49,3.49,0,0,1,2.88,1.53.37.37,0,0,1-.1.5A.36.36,0,0,1,273.5,115.5Z" style="fill:#263238"></path><path d="M286,128.37c-1.95,5.41-4.62,15.44-1.3,19.56,0,0-2.39,5.45-12.73,4.31C260.59,151,267.4,146,267.4,146c6.43-.79,7-5.39,6.57-9.81Z" style="fill:#ff8b7b"></path><path d="M287.08,150c1.12-1.68,2.36-3.61.36-4.39-2.21-.86-14.63-2.5-19.1-1.52s-3.67,4.61-3.67,4.61Z" style="fill:#CFD8DC"></path><path d="M243.51,408.08c-1,0-1.92-.14-2.22-.58a.67.67,0,0,1,.05-.79,1,1,0,0,1,.59-.42c1.29-.35,3.9,1.18,4,1.24a.19.19,0,0,1,.08.19.19.19,0,0,1-.15.14A13.32,13.32,0,0,1,243.51,408.08Zm-1.15-1.48a1.29,1.29,0,0,0-.35,0,.59.59,0,0,0-.37.25c-.13.23-.09.34,0,.4.34.5,2.27.51,3.7.31A7.72,7.72,0,0,0,242.36,406.6Z" style="fill:#CFD8DC"></path><path d="M245.83,407.87l-.07,0c-.91-.41-2.66-2.07-2.49-2.93,0-.21.2-.46.7-.51a1.29,1.29,0,0,1,1,.31c.94.8,1.06,2.86,1.06,2.95a.19.19,0,0,1-.08.16A.15.15,0,0,1,245.83,407.87Zm-1.73-3.1H244c-.33,0-.35.16-.36.21-.11.51,1.08,1.82,2,2.38a4.2,4.2,0,0,0-.91-2.36A.92.92,0,0,0,244.1,404.77Z" style="fill:#CFD8DC"></path><rect x="246.61" y="389.97" width="7.65" height="17.72" style="fill:#ff8b7b"></rect><polygon points="309.77 399.24 302.13 400.07 297.14 382.87 304.78 382.04 309.77 399.24" style="fill:#ff8b7b"></polygon><path d="M298.57,401.81c-1,.24-1.92.35-2.32,0a.67.67,0,0,1-.15-.77,1,1,0,0,1,.48-.56c1.18-.65,4.11.17,4.23.21a.18.18,0,0,1,.13.15.19.19,0,0,1-.11.18A13,13,0,0,1,298.57,401.81Zm-1.49-1.14a1.51,1.51,0,0,0-.34.13.55.55,0,0,0-.29.33c-.08.25,0,.35.05.4.45.39,2.34-.08,3.7-.62A8.09,8.09,0,0,0,297.08,400.67Z" style="fill:#CFD8DC"></path><path d="M300.79,401h-.07c-1-.17-3.12-1.33-3.16-2.2,0-.21.08-.49.56-.66a1.26,1.26,0,0,1,1,.06c1.12.53,1.74,2.48,1.77,2.56a.2.2,0,0,1,0,.18A.21.21,0,0,1,300.79,401Zm-2.46-2.55-.11,0c-.31.12-.3.24-.3.29,0,.52,1.51,1.47,2.55,1.79a4,4,0,0,0-1.47-2A1,1,0,0,0,298.33,398.49Z" style="fill:#CFD8DC"></path><path d="M301.72,399.36l8.36-2.4a.63.63,0,0,1,.75.32l3.09,6.11a1.17,1.17,0,0,1-.77,1.62c-2.93.79-4.39,1-8.07,2.08-2.26.65-6.86,2.22-10,3.12s-4.29-2-3.08-2.68c5.43-2.89,7.17-5.21,8.6-7.37A2,2,0,0,1,301.72,399.36Z" style="fill:#263238"></path><path d="M246.69,406.8h8.36a.64.64,0,0,1,.63.52l1.21,6.81a1.17,1.17,0,0,1-1.16,1.36c-3-.06-7.36-.23-11.15-.23-4.43,0-6.85.24-12.05.24-3.14,0-3.87-3.18-2.54-3.46,6-1.31,9.52-1.45,14.83-4.64A3.66,3.66,0,0,1,246.69,406.8Z" style="fill:#263238"></path><path d="M288.81,162.23c-.66.3-1.1.48-1.64.71l-1.53.6c-1,.38-2.05.73-3.07,1.07-2.05.65-4.1,1.24-6.17,1.75s-4.14,1-6.21,1.38c-1,.2-2.09.37-3.13.55a15.43,15.43,0,0,1-2.46.29,12.93,12.93,0,0,1-2.58-.24,17,17,0,0,1-4-1.41,25.26,25.26,0,0,1-3.21-1.86,42.8,42.8,0,0,1-5.28-4.28,62.86,62.86,0,0,1-8.45-9.79l4.26-3.85c3.08,2.43,6.3,4.9,9.49,7a44.91,44.91,0,0,0,4.79,2.77,11.54,11.54,0,0,0,4.1,1.33,2,2,0,0,0,.48,0c.13-.05-.12,0,.57-.2l2.86-.86c1.91-.55,3.79-1.18,5.67-1.77s3.74-1.23,5.58-1.87l2.74-1,2.55-.93Z" style="fill:#ff8b7b"></path><path d="M246.6,148.61l-2.62-5-6.91,5.22a10.87,10.87,0,0,0,5.64,3.57Z" style="fill:#ff8b7b"></path><polygon points="239.09 140.49 234.19 144.83 237.07 148.83 243.98 143.61 239.09 140.49" style="fill:#ff8b7b"></polygon><path d="M295.05,159.9c-2.15,7-23.51,11.8-23.51,11.8l-9.48-15.94s10-3,18.78-6.06C290,146.48,297.24,152.78,295.05,159.9Z" style="fill:#263238"></path><path d="M198.35,150.33l14.57-3.71c6,5.27,2.54,15.43,2.54,15.43s6.61,3.51,5.45,5.57-14.55-4.11-20.12-10.09S198.35,150.33,198.35,150.33Z" style="fill:#CFD8DC"></path><path d="M198.35,150.33l14.57-3.71c6,5.27,2.54,15.43,2.54,15.43s6.61,3.51,5.45,5.57-14.55-4.11-20.12-10.09S198.35,150.33,198.35,150.33Z" style="opacity:0.2"></path><path d="M224.89,141.66l4.32-11.22s5.24,6.33,7.55,7.8c1.24.79,5.09-.83,8.37-.57,1.48.11,4,1.79,2.35,3.63s-4.9-.41-7,1C237,144.62,231,147.66,224.89,141.66Z" style="fill:#CFD8DC"></path><path d="M224.89,141.66l4.32-11.22s5.24,6.33,7.55,7.8c1.24.79,5.09-.83,8.37-.57,1.48.11,4,1.79,2.35,3.63s-4.9-.41-7,1C237,144.62,231,147.66,224.89,141.66Z" style="opacity:0.2"></path><path d="M220.54,107c-1.34,3.67,1.42,5.48,3.27,4.83,3.69-1.31,8.86,1.43,9.71-1.25s.82-8.81-2-8.8S222,102.91,220.54,107Z" style="fill:#263238"></path><path d="M197.72,162.28c6.64,3.67,35.51-8.84,39-42.45,0,0,8-2,9.62-5.24,1.16-2.27-.27-4.82-1.44-6.11l-.31-.33a1.72,1.72,0,0,0-2.41-.05c-.31.29-.66.61-1,.92a8.29,8.29,0,0,1-3.5,2c-6,1-7-4.47-10.8-5.86s-13.3,3.36-11.72,10.74,2.18,11.31,1.21,12.83a25.7,25.7,0,0,1-4.7,3.38l-.08.05c-4,2.5-9.6,5.78-14,8.14l0,0c-2.08,1.11-3.87,2-5.07,2.53C187,145.12,188.36,157.13,197.72,162.28Z" style="fill:#CFD8DC"></path><path d="M236.86,119.74a65.33,65.33,0,0,0,10-1.93c1.58-.52,1.47,2.47.61,3.29-3.32,3.16-12.12,4.57-12.12,4.57S234.67,120.32,236.86,119.74Z" style="fill:#CFD8DC"></path><path d="M248.66,119.39a4.32,4.32,0,0,0-4-1.22l-4,1h0s5.86,3.1,6.87,4.31S250.88,121.81,248.66,119.39Z" style="fill:#CFD8DC"></path><path d="M248.66,119.39a4.32,4.32,0,0,0-4-1.22l-4,1h0s5.86,3.1,6.87,4.31S250.88,121.81,248.66,119.39Z" style="fill:#CFD8DC"></path><path d="M248.66,119.39a4.32,4.32,0,0,0-4-1.22l-4,1h0s5.86,3.1,6.87,4.31S250.88,121.81,248.66,119.39Z" style="fill:#fff;opacity:0.5"></path><path d="M244.07,111.79c-1.53,1.47-3.5,1.9-4.4,1s-.39-2.89,1.14-4.36,3.5-1.9,4.4-1S245.6,110.32,244.07,111.79Z" style="fill:#263238"></path><path d="M219.27,142.3l10.2-6.35s.37,8.21,1.33,10.78c.51,1.37,4.55,2.4,7,4.58,1.11,1,2.12,3.85-.31,4.32s-3.67-3.29-6.25-3.43C227.16,152,220.53,150.76,219.27,142.3Z" style="fill:#CFD8DC"></path><path d="M216,110a19.09,19.09,0,0,1,3-5.33c.06.69.37,1.94,1.29,1.27a3.87,3.87,0,0,0,1.8-3.14,1.93,1.93,0,0,1,1.51,2s2.56-.55,2.16-2.61c2.44,1,2,2.87,1.13,3.56S215.25,112.46,216,110Z" style="fill:#CFD8DC"></path><path d="M226.42,112.78a5,5,0,0,0-1.49,0l-.26,0a.88.88,0,0,1-.14-.23,1.1,1.1,0,0,1,.55-1.43,1.1,1.1,0,0,1,1.34,1.6Z" style="fill:#263238"></path><path d="M231.42,110.33a3,3,0,0,1,.77-.86l.17-.12a.89.89,0,0,0-.1-.23,1.22,1.22,0,0,0-1.35-.62.77.77,0,0,0-.29,1.19A1.36,1.36,0,0,0,231.42,110.33Z" style="fill:#263238"></path><path d="M238.1,125.68s-12.9,3.18-21.9.88c-.44.66-1.9,3.59-1.9,3.59s13.19,7.08,21.55,8.11c1.67-3.3.32-5.67,1.59-6.85C238.37,129.7,238.1,125.68,238.1,125.68Z" style="fill:#263238"></path><path d="M199.69,140.39c-5.77,2.8-17.78,3.41-26.07-3.16a18,18,0,0,0,1.39,3.35c-.62-.32-1.28-.67-2-1.06a7.12,7.12,0,0,0,3.07,3.2,14.36,14.36,0,0,0-2.11-.33,7.3,7.3,0,0,0,4.34,2.36,14.14,14.14,0,0,0-2.68.34,7.18,7.18,0,0,0,4.67,1,13.44,13.44,0,0,0-1.93.87,6.9,6.9,0,0,0,4.38-.21c-.23.15-.46.3-.69.48a5.63,5.63,0,0,0,3.22-.47c-.24.19-.47.38-.71.6a5.5,5.5,0,0,0,3.09-.75,35,35,0,0,0,10.58-3.21Z" style="fill:#CFD8DC"></path><path d="M220.84,109.85c-3.44-3-6.78-1-7.55,1-1.54,4-7,8-4.39,10.11s9.71,4.9,11.36,2.18S224.69,113.22,220.84,109.85Z" style="fill:#263238"></path><path d="M194.79,150.43l15,1.29c3.93,6.94-2.67,15.4-2.67,15.4s5.1,5.48,3.32,7S198,165.51,194.72,158,194.79,150.43,194.79,150.43Z" style="fill:#CFD8DC"></path><path d="M258.24,159.56c-2,1.94-4,3.59-6,5.3s-4.15,3.28-6.3,4.85A87.55,87.55,0,0,1,232,178c-1.23.61-2.59,1.1-3.9,1.64a8.33,8.33,0,0,1-2.58.55,8.18,8.18,0,0,1-2.69-.34,9.14,9.14,0,0,1-3.53-2.12,15.94,15.94,0,0,1-3.15-4.37,32.6,32.6,0,0,1-1.7-4.06,65.24,65.24,0,0,1-3.12-15.8l5.62-1.17a128,128,0,0,0,5.79,13.4,27.23,27.23,0,0,0,1.69,2.78,5.82,5.82,0,0,0,1.51,1.65c.14.09.14,0-.27-.2a2.5,2.5,0,0,0-1.53,0c1-.53,2-1,3-1.57a96,96,0,0,0,11.88-8c1.94-1.47,3.84-3,5.74-4.57s3.78-3.21,5.5-4.73Z" style="fill:#ff8b7b"></path><path d="M255.38,146.82s-9.51,8.2-10.61,65.37l40.68,4.5c.54-7.17,1.87-31.31,9.84-57.35a8.3,8.3,0,0,0-6.14-10.55c-1.44-.32-2.95-.62-4.46-.86A150.91,150.91,0,0,0,267.4,146,79,79,0,0,0,255.38,146.82Z" style="fill:#263238"></path><path d="M291.65,150.18c-2,33-41.15,42.55-46.32,43.66a.7.7,0,0,0-.56.69v1a.71.71,0,0,0,.87.69c6.39-1.53,46-12.28,47.9-44.83a1,1,0,0,0-.44-.86l-.89-.59A.36.36,0,0,0,291.65,150.18Z" style="fill:#CFD8DC"></path><path d="M250.55,192.89s16.06-4.64,20.55-8.89c-.77,4.61-2,10.17-9,13.44S248.55,197.5,250.55,192.89Z" style="fill:#CFD8DC"></path><path d="M257.85,193.32c-.07.84-.41,1.52-.77,1.52s-.6-.68-.53-1.52.4-1.52.76-1.52S257.91,192.48,257.85,193.32Z" style="opacity:0.30000000000000004"></path><path d="M263.54,156.74c-.22,7.21-18.31,20-18.31,20l-12.36-15.71A178.17,178.17,0,0,0,250,149.6C260.45,141.41,263.72,150.89,263.54,156.74Z" style="fill:#263238"></path><path d="M211.89,155.94l-5.7-5.38,6.72-4.55s3.84,2.64,4.32,6.46a2.37,2.37,0,0,1-1.82,2.53Z" style="fill:#ff8b7b"></path><polygon points="202.95 146.89 209.01 143.24 212.91 146.01 206.19 150.56 202.95 146.89" style="fill:#ff8b7b"></polygon><rect x="246.61" y="389.97" width="7.65" height="9.13" style="opacity:0.2"></rect><polygon points="304.79 382.05 297.14 382.87 299.91 392.41 307.36 390.91 304.79 382.05" style="opacity:0.2"></polygon><path d="M290.05,123.09c-3.08,7-4.53,11.3-9.5,13.82-7.47,3.79-15.09-2.35-14.16-10.07.84-7,5.74-17.29,13.79-17.89A9.92,9.92,0,0,1,290.05,123.09Z" style="fill:#ff8b7b"></path><path d="M273.92,123.05c-.32-1.35-.46-7,3.84-8.6s13.9,3.13,15.24,7.67-4.51,11.82-8.55,13S273.46,136.42,273.92,123.05Z" style="fill:#263238"></path><path d="M277.8,116.26c-5-3.56-7.12-6.51-3.35-9.08a1.46,1.46,0,0,1,2.11.4s-2.95-2.69,0-5.33,4.58,2.62,4.58,2.62-1.4-4.21,2.73-4.09,4.07,4.94,4.07,4.94.7-3.22,4.53-2.38c4.7,1,5.53,11.11,2.5,17.56,6.11.58,4.25,7.79-4.41,7.47S275.69,122.44,277.8,116.26Z" style="fill:#263238"></path><path d="M293.56,121.25s4.22-3.19,5-7.64C298.71,120.72,295.27,121.29,293.56,121.25Z" style="fill:#263238"></path><path d="M277.2,123.66a9.14,9.14,0,0,1-4.37,3.56c-2.36.89-3.34-.9-2.5-3,.75-1.92,2.88-4.68,5.17-4.68S278.43,121.7,277.2,123.66Z" style="fill:#ff8b7b"></path><path d="M259.2,213.79s4.22,57.74,8,79.65c4.18,24,28.42,97.44,28.42,97.44l13.89-2.53s-17.51-69-19.45-92.74c-2.1-25.78-4.63-78.92-4.63-78.92Z" style="fill:#CFD8DC"></path><path d="M266.31,237.76c-.76-3.18-2.5.82-4.52,7.75,1.53,17.14,3.53,37,5.44,47.93.42,2.45,1.06,5.42,1.86,8.78C268.39,277.76,268.37,246.35,266.31,237.76Z" style="opacity:0.30000000000000004"></path><path d="M244.77,212.19s-5.55,58.07-5.74,81.41c-.2,24.27,4.8,103.74,4.8,103.74h13s3.88-78,5.5-101.89c1.77-26,9.21-80.3,9.21-80.3Z" style="fill:#CFD8DC"></path><path d="M292.71,386.21c-.06,0,2.17,5,2.17,5l15.64-2.85-.95-4.67Z" style="fill:#263238"></path><path d="M241.57,392.17c-.06,0,.49,5.39.49,5.39h15.77l.64-4.81Z" style="fill:#263238"></path></g></svg>
